<?xml version="1.0" encoding="UTF-8" standalone="yes"?><svg xmlns="http://www.w3.org/2000/svg" xmlns:xlink="http://www.w3.org/1999/xlink" height="403px" style="width:757px;height:403px;background:#EFEFEF;" version="1.1" viewBox="0 0 757 403" width="757px"><defs><filter height="300%" id="f1" width="300%" x="-1" y="-1"><feGaussianBlur result="blurOut" stdDeviation="2.0"/><feColorMatrix in="blurOut" result="blurOut2" type="matrix" values="0 0 0 0 0 0 0 0 0 0 0 0 0 0 0 0 0 0 .4 0"/><feOffset dx="4.0" dy="4.0" in="blurOut2" result="blurOut3"/><feBlend in="SourceGraphic" in2="blurOut3" mode="normal"/></filter></defs><g><rect fill="#FFFFFF" filter="url(#f1)" height="189.6581" style="stroke: #383838; stroke-width: 1.0;" width="10" x="115" y="119.3319"/><rect fill="#FFFFFF" filter="url(#f1)" height="159.5641" style="stroke: #383838; stroke-width: 1.0;" width="10" x="190" y="149.4259"/><rect fill="#FFFFFF" filter="url(#f1)" height="129.4701" style="stroke: #383838; stroke-width: 1.0;" width="10" x="309" y="179.52"/><rect fill="#FFFFFF" filter="url(#f1)" height="99.3761" style="stroke: #383838; stroke-width: 1.0;" width="10" x="440.5" y="209.614"/><rect fill="#FFFFFF" filter="url(#f1)" height="39.188" style="stroke: #383838; stroke-width: 1.0;" width="10" x="445.5" y="269.802"/><rect fill="#FFFFFF" filter="url(#f1)" height="69.282" style="stroke: #383838; stroke-width: 1.0;" width="10" x="583.5" y="239.708"/><line style="stroke: #383838; stroke-width: 1.0; stroke-dasharray: 5.0,5.0;" x1="26" x2="26" y1="87.3319" y2="317.99"/><line style="stroke: #383838; stroke-width: 1.0; stroke-dasharray: 5.0,5.0;" x1="119.5" x2="119.5" y1="87.3319" y2="317.99"/><line style="stroke: #383838; stroke-width: 1.0; stroke-dasharray: 5.0,5.0;" x1="195" x2="195" y1="87.3319" y2="317.99"/><line style="stroke: #383838; stroke-width: 1.0; stroke-dasharray: 5.0,5.0;" x1="314" x2="314" y1="87.3319" y2="317.99"/><line style="stroke: #383838; stroke-width: 1.0; stroke-dasharray: 5.0,5.0;" x1="445" x2="445" y1="87.3319" y2="317.99"/><line style="stroke: #383838; stroke-width: 1.0; stroke-dasharray: 5.0,5.0;" x1="588" x2="588" y1="87.3319" y2="317.99"/><line style="stroke: #383838; stroke-width: 1.0; stroke-dasharray: 5.0,5.0;" x1="706" x2="706" y1="87.3319" y2="317.99"/><text fill="#000000" font-family="sans-serif" font-size="14" lengthAdjust="spacingAndGlyphs" textLength="30" x="8" y="83.3419">User</text><ellipse cx="26" cy="13" fill="#F8F8F8" filter="url(#f1)" rx="8" ry="8" style="stroke: #383838; stroke-width: 2.0;"/><path d="M26,21 L26,48 M13,29 L39,29 M26,48 L13,63 M26,48 L39,63 " fill="#F8F8F8" filter="url(#f1)" style="stroke: #383838; stroke-width: 2.0;"/><text fill="#000000" font-family="sans-serif" font-size="14" lengthAdjust="spacingAndGlyphs" textLength="30" x="8" y="330.332">User</text><ellipse cx="26" cy="344.3219" fill="#F8F8F8" filter="url(#f1)" rx="8" ry="8" style="stroke: #383838; stroke-width: 2.0;"/><path d="M26,352.3219 L26,379.3219 M13,360.3219 L39,360.3219 M26,379.3219 L13,394.3219 M26,379.3219 L39,394.3219 " fill="#F8F8F8" filter="url(#f1)" style="stroke: #383838; stroke-width: 2.0;"/><rect fill="#F8F8F8" filter="url(#f1)" height="31.3319" style="stroke: #383838; stroke-width: 1.5;" width="37" x="99.5" y="51"/><text fill="#000000" font-family="sans-serif" font-size="14" lengthAdjust="spacingAndGlyphs" textLength="23" x="106.5" y="71.3419">dev</text><rect fill="#F8F8F8" filter="url(#f1)" height="31.3319" style="stroke: #383838; stroke-width: 1.5;" width="37" x="99.5" y="316.99"/><text fill="#000000" font-family="sans-serif" font-size="14" lengthAdjust="spacingAndGlyphs" textLength="23" x="106.5" y="337.332">dev</text><rect fill="#F8F8F8" filter="url(#f1)" height="31.3319" style="stroke: #383838; stroke-width: 1.5;" width="44" x="171" y="51"/><text fill="#000000" font-family="sans-serif" font-size="14" lengthAdjust="spacingAndGlyphs" textLength="30" x="178" y="71.3419">build</text><rect fill="#F8F8F8" filter="url(#f1)" height="31.3319" style="stroke: #383838; stroke-width: 1.5;" width="44" x="171" y="316.99"/><text fill="#000000" font-family="sans-serif" font-size="14" lengthAdjust="spacingAndGlyphs" textLength="30" x="178" y="337.332">build</text><rect fill="#F8F8F8" filter="url(#f1)" height="31.3319" style="stroke: #383838; stroke-width: 1.5;" width="96" x="264" y="51"/><text fill="#000000" font-family="sans-serif" font-size="14" lengthAdjust="spacingAndGlyphs" textLength="82" x="271" y="71.3419">deploy-stage</text><rect fill="#F8F8F8" filter="url(#f1)" height="31.3319" style="stroke: #383838; stroke-width: 1.5;" width="96" x="264" y="316.99"/><text fill="#000000" font-family="sans-serif" font-size="14" lengthAdjust="spacingAndGlyphs" textLength="82" x="271" y="337.332">deploy-stage</text><rect fill="#F8F8F8" filter="url(#f1)" height="31.3319" style="stroke: #383838; stroke-width: 1.5;" width="139" x="374" y="51"/><text fill="#000000" font-family="sans-serif" font-size="14" lengthAdjust="spacingAndGlyphs" textLength="125" x="381" y="71.3419">deploy-prod-heroku</text><rect fill="#F8F8F8" filter="url(#f1)" height="31.3319" style="stroke: #383838; stroke-width: 1.5;" width="139" x="374" y="316.99"/><text fill="#000000" font-family="sans-serif" font-size="14" lengthAdjust="spacingAndGlyphs" textLength="125" x="381" y="337.332">deploy-prod-heroku</text><rect fill="#F8F8F8" filter="url(#f1)" height="31.3319" style="stroke: #383838; stroke-width: 1.5;" width="119" x="527" y="51"/><text fill="#000000" font-family="sans-serif" font-size="14" lengthAdjust="spacingAndGlyphs" textLength="105" x="534" y="71.3419">deploy-prod-gae</text><rect fill="#F8F8F8" filter="url(#f1)" height="31.3319" style="stroke: #383838; stroke-width: 1.5;" width="119" x="527" y="316.99"/><text fill="#000000" font-family="sans-serif" font-size="14" lengthAdjust="spacingAndGlyphs" textLength="105" x="534" y="337.332">deploy-prod-gae</text><rect fill="#F8F8F8" filter="url(#f1)" height="31.3319" style="stroke: #383838; stroke-width: 1.5;" width="88" x="660" y="51"/><text fill="#000000" font-family="sans-serif" font-size="14" lengthAdjust="spacingAndGlyphs" textLength="74" x="667" y="71.3419">post-deploy</text><rect fill="#F8F8F8" filter="url(#f1)" height="31.3319" style="stroke: #383838; stroke-width: 1.5;" width="88" x="660" y="316.99"/><text fill="#000000" font-family="sans-serif" font-size="14" lengthAdjust="spacingAndGlyphs" textLength="74" x="667" y="337.332">post-deploy</text><rect fill="#FFFFFF" filter="url(#f1)" height="189.6581" style="stroke: #383838; stroke-width: 1.0;" width="10" x="115" y="119.3319"/><rect fill="#FFFFFF" filter="url(#f1)" height="159.5641" style="stroke: #383838; stroke-width: 1.0;" width="10" x="190" y="149.4259"/><rect fill="#FFFFFF" filter="url(#f1)" height="129.4701" style="stroke: #383838; stroke-width: 1.0;" width="10" x="309" y="179.52"/><rect fill="#FFFFFF" filter="url(#f1)" height="99.3761" style="stroke: #383838; stroke-width: 1.0;" width="10" x="440.5" y="209.614"/><rect fill="#FFFFFF" filter="url(#f1)" height="39.188" style="stroke: #383838; stroke-width: 1.0;" width="10" x="445.5" y="269.802"/><rect fill="#FFFFFF" filter="url(#f1)" height="69.282" style="stroke: #383838; stroke-width: 1.0;" width="10" x="583.5" y="239.708"/><polygon fill="#383838" points="103,115.3319,113,119.3319,103,123.3319,107,119.3319" style="stroke: #383838; stroke-width: 1.0;"/><line style="stroke: #383838; stroke-width: 1.0;" x1="26" x2="109" y1="119.3319" y2="119.3319"/><text fill="#000000" font-family="sans-serif" font-size="13" lengthAdjust="spacingAndGlyphs" textLength="70" x="33" y="113.7209">wercker-dev</text><polygon fill="#383838" points="178,145.4259,188,149.4259,178,153.4259,182,149.4259" style="stroke: #383838; stroke-width: 1.0;"/><line style="stroke: #383838; stroke-width: 1.0;" x1="125" x2="184" y1="149.4259" y2="149.4259"/><text fill="#000000" font-family="sans-serif" font-size="13" lengthAdjust="spacingAndGlyphs" textLength="46" x="132" y="143.8149">git-push</text><polygon fill="#383838" points="297,175.52,307,179.52,297,183.52,301,179.52" style="stroke: #383838; stroke-width: 1.0;"/><line style="stroke: #383838; stroke-width: 1.0;" x1="200" x2="303" y1="179.52" y2="179.52"/><text fill="#000000" font-family="sans-serif" font-size="13" lengthAdjust="spacingAndGlyphs" textLength="90" x="207" y="173.909">git-push feature</text><polygon fill="#383838" points="428.5,205.614,438.5,209.614,428.5,213.614,432.5,209.614" style="stroke: #383838; stroke-width: 1.0;"/><line style="stroke: #383838; stroke-width: 1.0;" x1="200" x2="434.5" y1="209.614" y2="209.614"/><text fill="#000000" font-family="sans-serif" font-size="13" lengthAdjust="spacingAndGlyphs" textLength="90" x="207" y="204.003">git-push master</text><polygon fill="#383838" points="571.5,235.708,581.5,239.708,571.5,243.708,575.5,239.708" style="stroke: #383838; stroke-width: 1.0;"/><line style="stroke: #383838; stroke-width: 1.0;" x1="200" x2="577.5" y1="239.708" y2="239.708"/><text fill="#000000" font-family="sans-serif" font-size="13" lengthAdjust="spacingAndGlyphs" textLength="90" x="207" y="234.097">git-push master</text><polygon fill="#383838" points="694,265.802,704,269.802,694,273.802,698,269.802" style="stroke: #383838; stroke-width: 1.0;"/><line style="stroke: #383838; stroke-width: 1.0; stroke-dasharray: 2.0,2.0;" x1="455.5" x2="700" y1="269.802" y2="269.802"/><text fill="#000000" font-family="sans-serif" font-size="13" lengthAdjust="spacingAndGlyphs" textLength="57" x="462.5" y="264.191">[released]</text><polygon fill="#383838" points="37,295.896,27,299.896,37,303.896,33,299.896" style="stroke: #383838; stroke-width: 1.0;"/><line style="stroke: #383838; stroke-width: 1.0; stroke-dasharray: 2.0,2.0;" x1="31" x2="705" y1="299.896" y2="299.896"/><text fill="#000000" font-family="sans-serif" font-size="13" lengthAdjust="spacingAndGlyphs" textLength="36" x="43" y="294.285">[done]</text></g></svg>